<svg width="60" height="60" viewBox="0 0 60 60" fill="none" xmlns="http://www.w3.org/2000/svg">
<path d="M28 8V2C28 1.46957 28.2107 0.960859 28.5858 0.585786C28.9609 0.210714 29.4696 0 30 0C30.5304 0 31.0391 0.210714 31.4142 0.585786C31.7893 0.960859 32 1.46957 32 2V8C32 8.53043 31.7893 9.03914 31.4142 9.41421C31.0391 9.78929 30.5304 10 30 10C29.4696 10 28.9609 9.78929 28.5858 9.41421C28.2107 9.03914 28 8.53043 28 8ZM46 30C46 33.1645 45.0616 36.2579 43.3035 38.8891C41.5454 41.5203 39.0466 43.5711 36.1229 44.7821C33.1993 45.9931 29.9823 46.3099 26.8786 45.6926C23.7749 45.0752 20.9239 43.5513 18.6863 41.3137C16.4487 39.0761 14.9248 36.2251 14.3074 33.1214C13.6901 30.0177 14.0069 26.8007 15.2179 23.8771C16.4289 20.9534 18.4797 18.4546 21.1109 16.6965C23.7421 14.9384 26.8355 14 30 14C34.242 14.0046 38.309 15.6918 41.3086 18.6914C44.3082 21.691 45.9954 25.758 46 30ZM42 30C42 27.6266 41.2962 25.3065 39.9776 23.3332C38.6591 21.3598 36.7849 19.8217 34.5922 18.9134C32.3995 18.0052 29.9867 17.7676 27.6589 18.2306C25.3311 18.6936 23.1929 19.8365 21.5147 21.5147C19.8365 23.1929 18.6936 25.3311 18.2306 27.6589C17.7676 29.9867 18.0052 32.3995 18.9134 34.5922C19.8217 36.7849 21.3598 38.6591 23.3332 39.9776C25.3065 41.2962 27.6266 42 30 42C33.1816 41.9967 36.2319 40.7313 38.4816 38.4816C40.7313 36.2319 41.9967 33.1816 42 30ZM12.585 15.415C12.9603 15.7903 13.4693 16.0011 14 16.0011C14.5307 16.0011 15.0397 15.7903 15.415 15.415C15.7903 15.0397 16.0011 14.5307 16.0011 14C16.0011 13.4693 15.7903 12.9603 15.415 12.585L11.415 8.585C11.0397 8.20972 10.5307 7.99889 10 7.99889C9.46927 7.99889 8.96028 8.20972 8.585 8.585C8.20972 8.96028 7.99889 9.46927 7.99889 10C7.99889 10.5307 8.20972 11.0397 8.585 11.415L12.585 15.415ZM12.585 44.585L8.585 48.585C8.20972 48.9603 7.99889 49.4693 7.99889 50C7.99889 50.5307 8.20972 51.0397 8.585 51.415C8.96028 51.7903 9.46927 52.0011 10 52.0011C10.5307 52.0011 11.0397 51.7903 11.415 51.415L15.415 47.415C15.6008 47.2292 15.7482 47.0086 15.8488 46.7658C15.9494 46.523 16.0011 46.2628 16.0011 46C16.0011 45.7372 15.9494 45.477 15.8488 45.2342C15.7482 44.9914 15.6008 44.7708 15.415 44.585C15.2292 44.3992 15.0086 44.2518 14.7658 44.1512C14.523 44.0506 14.2628 43.9989 14 43.9989C13.7372 43.9989 13.477 44.0506 13.2342 44.1512C12.9914 44.2518 12.7708 44.3992 12.585 44.585ZM46 16C46.2627 16.0002 46.5229 15.9486 46.7657 15.8483C47.0085 15.7479 47.2291 15.6007 47.415 15.415L51.415 11.415C51.7903 11.0397 52.0011 10.5307 52.0011 10C52.0011 9.46927 51.7903 8.96028 51.415 8.585C51.0397 8.20972 50.5307 7.99889 50 7.99889C49.4693 7.99889 48.9603 8.20972 48.585 8.585L44.585 12.585C44.305 12.8647 44.1142 13.2212 44.0369 13.6094C43.9596 13.9976 43.9993 14.3999 44.1508 14.7656C44.3023 15.1312 44.5588 15.4437 44.888 15.6634C45.2172 15.8832 45.6042 16.0003 46 16ZM47.415 44.585C47.0397 44.2097 46.5307 43.9989 46 43.9989C45.4693 43.9989 44.9603 44.2097 44.585 44.585C44.2097 44.9603 43.9989 45.4693 43.9989 46C43.9989 46.5307 44.2097 47.0397 44.585 47.415L48.585 51.415C48.7708 51.6008 48.9914 51.7482 49.2342 51.8488C49.477 51.9494 49.7372 52.0011 50 52.0011C50.2628 52.0011 50.523 51.9494 50.7658 51.8488C51.0086 51.7482 51.2292 51.6008 51.415 51.415C51.6008 51.2292 51.7482 51.0086 51.8488 50.7658C51.9494 50.523 52.0011 50.2628 52.0011 50C52.0011 49.7372 51.9494 49.477 51.8488 49.2342C51.7482 48.9914 51.6008 48.7708 51.415 48.585L47.415 44.585ZM10 30C10 29.4696 9.78929 28.9609 9.41421 28.5858C9.03914 28.2107 8.53043 28 8 28H2C1.46957 28 0.960859 28.2107 0.585786 28.5858C0.210714 28.9609 0 29.4696 0 30C0 30.5304 0.210714 31.0391 0.585786 31.4142C0.960859 31.7893 1.46957 32 2 32H8C8.53043 32 9.03914 31.7893 9.41421 31.4142C9.78929 31.0391 10 30.5304 10 30ZM30 50C29.4696 50 28.9609 50.2107 28.5858 50.5858C28.2107 50.9609 28 51.4696 28 52V58C28 58.5304 28.2107 59.0391 28.5858 59.4142C28.9609 59.7893 29.4696 60 30 60C30.5304 60 31.0391 59.7893 31.4142 59.4142C31.7893 59.0391 32 58.5304 32 58V52C32 51.4696 31.7893 50.9609 31.4142 50.5858C31.0391 50.2107 30.5304 50 30 50ZM58 28H52C51.4696 28 50.9609 28.2107 50.5858 28.5858C50.2107 28.9609 50 29.4696 50 30C50 30.5304 50.2107 31.0391 50.5858 31.4142C50.9609 31.7893 51.4696 32 52 32H58C58.5304 32 59.0391 31.7893 59.4142 31.4142C59.7893 31.0391 60 30.5304 60 30C60 29.4696 59.7893 28.9609 59.4142 28.5858C59.0391 28.2107 58.5304 28 58 28Z" fill="white"/>
</svg>
