<svg width="28" height="28" viewBox="0 0 28 28" fill="none" xmlns="http://www.w3.org/2000/svg">
<path d="M25.5434 15.5564C25.4312 15.4439 25.2904 15.3641 25.1363 15.3256C24.9821 15.2871 24.8204 15.2912 24.6684 15.3377C23 15.842 21.2259 15.8843 19.5354 15.46C17.8448 15.0357 16.301 14.1607 15.0685 12.9282C13.836 11.6957 12.961 10.1519 12.5367 8.46132C12.1123 6.77074 12.1546 4.99672 12.659 3.32828C12.7058 3.17625 12.7103 3.01434 12.672 2.85995C12.6337 2.70557 12.554 2.56455 12.4415 2.45207C12.329 2.33959 12.188 2.25989 12.0336 2.22157C11.8792 2.18324 11.7173 2.18772 11.5653 2.23453C9.25858 2.94114 7.23352 4.35727 5.77824 6.28141C4.50557 7.97109 3.72927 9.98219 3.53656 12.0888C3.34386 14.1953 3.74237 16.3139 4.68734 18.2064C5.63232 20.099 7.0863 21.6906 8.88595 22.8023C10.6856 23.9141 12.7596 24.502 14.875 24.5C17.3428 24.5076 19.7451 23.7053 21.7131 22.2163C23.6372 20.761 25.0533 18.7359 25.76 16.4292C25.8062 16.2778 25.8105 16.1166 25.7724 15.9629C25.7342 15.8092 25.6551 15.6687 25.5434 15.5564ZM20.6609 20.8184C18.8076 22.2143 16.5124 22.8938 14.1979 22.7317C11.8833 22.5697 9.70525 21.577 8.06455 19.9364C6.42385 18.2959 5.43099 16.1179 5.26874 13.8033C5.10649 11.4888 5.78576 9.19358 7.18152 7.34016C8.09087 6.13929 9.2665 5.16583 10.6159 4.49641C10.539 5.03587 10.5003 5.58009 10.5 6.125C10.5031 9.14086 11.7026 12.0323 13.8351 14.1648C15.9677 16.2974 18.8591 17.4968 21.875 17.5C22.421 17.4998 22.9663 17.4611 23.5068 17.3841C22.8368 18.7337 21.8626 19.9093 20.6609 20.8184Z" fill="#565656"/>
</svg>
